# xmcd CD database file
#
# Track frame offsets:
#	150
#	9496
#	19579
#	26140
#	35094
#	44522
#	53466
#	63323
#	73626
#	83345
#	93170
#	102274
#	110812
#	118842
#	132287
#	142480
#	151434
#	163186
#	173808
#	185650
#	195316
#	205194
#	215970
#	234127
#	243367
#
# Disc length: 3362 seconds
#
# Revision: 0
# Processed by: cddbd v1.5.2PL0 Copyright (c) Steve Scherf et al.
# Submitted via: CDex 1.70beta2
#
DISCID=620d2019
DTITLE=Various Artist - The Beach Boys And The Rise Of The Surf Movement
DYEAR=1900
DGENRE=Salsa
TTITLE0=Beach Boys - Surfin' Safari
TTITLE1=Beach Boys - Country Fair
TTITLE2=Beach Boys - Ten Little Indians
TTITLE3=Beach Boys - Chug-A-Lug
TTITLE4=Beach Boys - Little Girl (You're My Miss America)
TTITLE5=Beach Boys - Four O Nine (409)
TTITLE6=Beach Boys - Surfin'
TTITLE7=Beach Boys - Heads You Win, Tails I Lose
TTITLE8=Beach Boys - Summertime Blues
TTITLE9=Beach Boys - Cuckoo Clock
TTITLE10=Beach Boys - Moon Dawg
TTITLE11=Beach Boys - The Shift
TTITLE12=Beach Boys - Luau
TTITLE13=Dale, Dick and The Del Tones - Surf Beat
TTITLE14=Vernon, Ray and The Raymen - Hold It
TTITLE15=Ventures, The - The Twothousand Pund Bee
TTITLE16=Ramrods, The - Ghost Riders In The Sky
TTITLE17=Jan and Dean - Baggy Pants
TTITLE18=Lively Ones, The - Crying Guitar
TTITLE19=Bel Airs, The - Mister Moto
TTITLE20=Fireballs, The - Bulldog
TTITLE21=Johnny and The Hurricanes - High Voltage
TTITLE22=Johnston, Bruce - Do The Surfer Stomp Pt 1 and 2
TTITLE23=Adkins, Barbara and The Revels - Church Key
TTITLE24=Nielsen, Ralph and The Chancellors - Scream
EXTD=
EXTT0=
EXTT1=
EXTT2=
EXTT3=
EXTT4=
EXTT5=
EXTT6=
EXTT7=
EXTT8=
EXTT9=
EXTT10=
EXTT11=
EXTT12=
EXTT13=
EXTT14=
EXTT15=
EXTT16=
EXTT17=
EXTT18=
EXTT19=
EXTT20=
EXTT21=
EXTT22=
EXTT23=
EXTT24=
PLAYORDER=
